<svg width="40" height="40" viewBox="0 0 40 40" fill="none" xmlns="http://www.w3.org/2000/svg">
    <path d="M12.9059 27.0948C13.0504 27.2393 13.1226 27.3115 13.2009 27.3496C13.3443 27.4194 13.5118 27.4194 13.6552 27.3496C13.7334 27.3115 13.8057 27.2393 13.9502 27.0948L20.0006 21.0443L26.0424 27.0861C26.1869 27.2306 26.2592 27.3029 26.3374 27.341C26.4808 27.4108 26.6483 27.4108 26.7917 27.341C26.87 27.3029 26.9422 27.2306 27.0867 27.0861C27.2312 26.9416 27.3035 26.8694 27.3416 26.7911C27.4114 26.6477 27.4114 26.4802 27.3416 26.3368C27.3035 26.2586 27.2313 26.1863 27.0867 26.0418L21.045 20L27.0954 13.9496C27.2399 13.8051 27.3121 13.7328 27.3502 13.6546C27.4201 13.5112 27.4201 13.3437 27.3502 13.2003C27.3122 13.122 27.2399 13.0498 27.0954 12.9053C26.9509 12.7607 26.8786 12.6885 26.8004 12.6504C26.657 12.5806 26.4894 12.5806 26.346 12.6504C26.2678 12.6885 26.1955 12.7607 26.051 12.9052L20.0006 18.9557L13.9588 12.9139C13.8143 12.7694 13.7421 12.6971 13.6638 12.659C13.5204 12.5892 13.3529 12.5892 13.2095 12.659C13.1313 12.6971 13.059 12.7694 12.9145 12.9139C12.77 13.0584 12.6977 13.1307 12.6596 13.2089C12.5898 13.3523 12.5898 13.5198 12.6596 13.6632C12.6977 13.7415 12.77 13.8137 12.9145 13.9582L18.9563 20L12.9059 26.0504C12.7614 26.1949 12.6891 26.2672 12.651 26.3454C12.5812 26.4888 12.5812 26.6564 12.651 26.7998C12.6891 26.878 12.7614 26.9503 12.9059 27.0948Z" fill="white" fill-opacity="0.9" style="fill:white;fill-opacity:0.9;"/>
</svg>
