<svg width="5" height="5" viewBox="0 0 5 5" fill="none" xmlns="http://www.w3.org/2000/svg">
<path d="M4.8 2.4C4.8 2.21802 4.66337 2.06743 4.48738 2.0211C3.65422 1.80179 2.99821 1.14578 2.7789 0.31262C2.73257 0.136635 2.58198 0 2.4 0C2.21802 0 2.06743 0.136635 2.0211 0.31262C1.80179 1.14578 1.14578 1.80179 0.31262 2.0211C0.136634 2.06743 0 2.21802 0 2.4C0 2.58198 0.136635 2.73257 0.31262 2.7789C1.14578 2.99821 1.80179 3.65422 2.0211 4.48738C2.06743 4.66337 2.21802 4.8 2.4 4.8C2.58198 4.8 2.73257 4.66337 2.7789 4.48738C2.99821 3.65422 3.65422 2.99821 4.48738 2.7789C4.66337 2.73257 4.8 2.58198 4.8 2.4Z" fill="white" fill-opacity="0.96" style="fill:white;fill-opacity:0.96;"/>
</svg>
