<svg width="40" height="40" viewBox="0 0 40 40" fill="none" xmlns="http://www.w3.org/2000/svg">
<path d="M33.571 25.7142C33.571 25.2809 33.2457 24.9224 32.8267 24.8121C30.843 24.2899 29.2811 22.728 28.7589 20.7443C28.6486 20.3253 28.2901 20 27.8568 20C27.4235 20 27.065 20.3253 26.9547 20.7443C26.4325 22.728 24.8706 24.2899 22.8869 24.8121C22.4679 24.9224 22.1426 25.2809 22.1426 25.7142C22.1426 26.1475 22.4679 26.5061 22.8869 26.6164C24.8706 27.1385 26.4325 28.7004 26.9547 30.6841C27.065 31.1031 27.4235 31.4285 27.8568 31.4285C28.2901 31.4285 28.6486 31.1031 28.7589 30.6841C29.2811 28.7004 30.843 27.1385 32.8267 26.6164C33.2457 26.5061 33.571 26.1475 33.571 25.7142Z" fill="white" fill-opacity="0.96" style="fill:white;fill-opacity:0.96;"/>
<path d="M32.1475 7.65039C33.0998 7.10625 34.2851 7.79383 34.2852 8.89062V16.8896C34.2852 16.9811 34.3031 17.0719 34.3359 17.1572C34.8003 18.3652 35 19.6866 35 21.0723L34.9873 21.6045C34.986 21.634 34.984 21.6639 34.9824 21.6934C34.9548 22.1954 34.4033 22.4614 33.9678 22.21L32.2129 21.1973C32.1685 21.1716 32.1426 21.1236 32.1426 21.0723C32.1426 18.7932 31.5005 17.1388 30.0586 15.9609C28.4966 14.6852 25.5223 13.5723 20 13.5723C14.4776 13.5723 11.5034 14.6852 9.94141 15.9609C8.49943 17.1388 7.85743 18.7932 7.85742 21.0723C7.85756 23.203 8.57674 24.9028 10.1621 26.1504C11.8492 27.4779 14.8732 28.5723 20 28.5723C20.2273 28.5723 20.4508 28.5691 20.6699 28.5645C20.8552 28.5606 21.0352 28.6278 21.1719 28.7529L22.707 30.1602C23.1562 30.5724 22.9141 31.3123 22.3057 31.3535C21.5737 31.4031 20.8056 31.4287 20 31.4287L18.9941 31.415C9.1333 31.1467 5.2518 26.9004 5.01172 21.6045L5 21.0723C5 19.6854 5.19805 18.3622 5.66309 17.1533C5.69593 17.0679 5.71387 16.9773 5.71387 16.8857V10.1211C5.71414 8.47613 7.49155 7.44486 8.91992 8.26074L13.8652 11.0869C14.0139 11.1719 14.188 11.2006 14.3564 11.1699C15.9748 10.8747 17.8454 10.7148 20 10.7148L21.0674 10.7285C22.7774 10.7725 24.2948 10.9267 25.6387 11.1719C25.807 11.2026 25.9813 11.1738 26.1299 11.0889L32.1475 7.65039Z" fill="url(#paint0_linear_60656_6173)" fill-opacity="0.7"/>
<defs>
<linearGradient id="paint0_linear_60656_6173" x1="20" y1="7.45996" x2="20" y2="31.4286" gradientUnits="userSpaceOnUse">
<stop stop-color="white" style="stop-color:white;stop-opacity:1;"/>
<stop offset="1" stop-color="white" stop-opacity="0.5" style="stop-color:white;stop-opacity:0.5;"/>
</linearGradient>
</defs>
</svg>
