<svg width="60" height="60" viewBox="0 0 60 60" fill="none" xmlns="http://www.w3.org/2000/svg">
<circle cx="30" cy="30" r="28.8" stroke="#E52C20" style="stroke:#E52C20;stroke:color(display-p3 0.8980 0.1725 0.1255);stroke-opacity:1;" stroke-width="2.4"/>
<path d="M30.2816 36.2751C30.7854 36.2751 31.0376 36.2752 31.23 36.3733C31.3993 36.4596 31.5371 36.5973 31.6234 36.7666C31.7214 36.9591 31.7215 37.2112 31.7215 37.7151V38.2849C31.7215 38.7886 31.7213 39.0409 31.6234 39.2334C31.5371 39.4026 31.3992 39.5404 31.23 39.6267C31.0376 39.7248 30.7854 39.7249 30.2816 39.7249H29.7117C29.2079 39.7249 28.955 39.7247 28.7625 39.6267C28.5934 39.5404 28.4554 39.4026 28.3692 39.2334C28.2713 39.0409 28.2718 38.7886 28.2718 38.2849V37.7151C28.2718 37.2112 28.2712 36.9591 28.3692 36.7666C28.4554 36.5974 28.5933 36.4596 28.7625 36.3733C28.955 36.2753 29.2079 36.2751 29.7117 36.2751H30.2816Z" fill="#E52C20" style="fill:#E52C20;fill:color(display-p3 0.8980 0.1725 0.1255);fill-opacity:1;"/>
<path d="M30.3614 19.25C30.8882 19.25 31.1521 19.2499 31.3494 19.354C31.5228 19.4457 31.6621 19.5922 31.7449 19.77C31.839 19.9722 31.8262 20.2356 31.7999 20.7617L31.1817 33.1265C31.1692 33.3772 31.1626 33.5027 31.1319 33.6062C31.0407 33.913 30.7932 34.1485 30.4822 34.2244C30.3774 34.2499 30.2513 34.25 30.0003 34.25C29.7492 34.25 29.6232 34.2499 29.5184 34.2244C29.2073 34.1486 28.9599 33.9131 28.8687 33.6062C28.838 33.5027 28.8315 33.3773 28.8189 33.1265L28.2007 20.7617C28.1744 20.2355 28.1615 19.9723 28.2557 19.77C28.3386 19.5923 28.4771 19.4457 28.6505 19.354C28.8478 19.2498 29.1121 19.25 29.6392 19.25H30.3614Z" fill="#E52C20" style="fill:#E52C20;fill:color(display-p3 0.8980 0.1725 0.1255);fill-opacity:1;"/>
<path d="M25.7025 28.4104C25.8862 28.4378 26.084 28.5563 26.1946 28.7056C26.3301 28.8886 26.3426 29.15 26.3675 29.6724L26.4034 30.4128C26.4176 30.7106 26.4244 30.8596 26.388 30.9819C26.3531 31.099 26.3055 31.1832 26.2232 31.2734C26.1371 31.3677 25.9886 31.4481 25.6915 31.6082C25.3034 31.8172 24.9367 32.0515 24.5987 32.3076C24.3775 32.4753 24.1752 32.6465 23.9915 32.8196C23.5139 33.2697 23.275 33.4951 23.106 33.5461C22.9296 33.5994 22.8259 33.5973 22.6512 33.5388C22.4838 33.4827 22.2963 33.2954 21.9217 32.9207L21.5819 32.5808C21.3274 32.3263 21.1999 32.1989 21.1439 32.0322C21.0984 31.897 21.0957 31.7156 21.1365 31.5789C21.1868 31.4103 21.2951 31.2945 21.5115 31.0625C22.4084 30.1012 23.5519 29.2877 24.8316 28.6821C25.2618 28.4786 25.4772 28.3769 25.7025 28.4104Z" fill="#E52C20" style="fill:#E52C20;fill:color(display-p3 0.8980 0.1725 0.1255);fill-opacity:1;"/>
<path d="M34.2952 28.4097C34.5205 28.3762 34.7359 28.4779 35.1661 28.6814C36.4464 29.2872 37.591 30.1007 38.4883 31.0625C38.7048 31.2946 38.813 31.4111 38.8633 31.5796C38.9041 31.7163 38.9015 31.8977 38.856 32.033C38.7999 32.1997 38.6727 32.3275 38.418 32.5823L38.0789 32.9207C37.7044 33.2953 37.5169 33.4828 37.3494 33.5388C37.1748 33.5972 37.071 33.5988 36.8946 33.5454C36.7256 33.4943 36.4871 33.2691 36.0098 32.8188C35.8264 32.6458 35.6243 32.4751 35.4034 32.3076C35.0645 32.0508 34.697 31.8155 34.3077 31.606C34.0104 31.446 33.8613 31.3662 33.7752 31.272C33.6929 31.1818 33.6453 31.0975 33.6104 30.9805C33.5739 30.8581 33.5809 30.7092 33.595 30.4114L33.6302 29.6724C33.655 29.1498 33.6676 28.8879 33.803 28.7048C33.9136 28.5556 34.1115 28.4371 34.2952 28.4097Z" fill="#E52C20" style="fill:#E52C20;fill:color(display-p3 0.8980 0.1725 0.1255);fill-opacity:1;"/>
<path d="M24.576 21.6091C25.015 21.4698 25.2344 21.3996 25.4395 21.4502C25.6115 21.4926 25.7809 21.6106 25.8804 21.7571C25.9991 21.9318 26.0109 22.1766 26.0342 22.666L26.065 23.3186C26.0813 23.6611 26.0898 23.8325 26.0408 23.9712C25.9955 24.0995 25.9276 24.1991 25.8248 24.2883C25.7136 24.3846 25.5388 24.4439 25.1898 24.5623C23.6496 25.0847 22.2118 25.839 20.9893 26.7654C20.3616 27.2411 19.8103 27.7451 19.3377 28.2683C18.9525 28.6949 18.7596 28.9084 18.5848 28.9722C18.4163 29.0336 18.2786 29.0374 18.1072 28.9846C17.9294 28.9298 17.7496 28.7493 17.3902 28.3899L17.0086 28.009C16.7523 27.7527 16.6235 27.6236 16.567 27.4619C16.52 27.3273 16.5138 27.1572 16.5508 27.0195C16.5955 26.8541 16.7048 26.7283 16.9222 26.4768C18.8122 24.2898 21.5427 22.5721 24.576 21.6091Z" fill="#E52C20" style="fill:#E52C20;fill:color(display-p3 0.8980 0.1725 0.1255);fill-opacity:1;"/>
<path d="M34.5582 21.4495C34.7632 21.3989 34.9828 21.4684 35.4217 21.6077C38.4558 22.5705 41.1872 24.2888 43.0777 26.4761C43.2949 26.7274 43.4037 26.8534 43.4483 27.0188C43.4853 27.1565 43.4792 27.3265 43.4322 27.4612C43.3756 27.6229 43.2476 27.7519 42.9913 28.0083L42.6089 28.3899C42.2495 28.7494 42.0697 28.9298 41.8919 28.9846C41.7204 29.0375 41.5822 29.0337 41.4136 28.9722C41.2389 28.9083 41.0463 28.6946 40.6614 28.2683C40.1891 27.7451 39.6375 27.241 39.0098 26.7654C37.787 25.8388 36.3486 25.0846 34.8079 24.5623C34.4589 24.4439 34.2841 24.3846 34.1729 24.2883C34.0701 24.1992 34.0022 24.0995 33.9569 23.9712C33.9079 23.8325 33.9163 23.6611 33.9327 23.3186L33.9634 22.6653C33.9868 22.176 33.9986 21.9311 34.1173 21.7563C34.2168 21.6098 34.3862 21.4919 34.5582 21.4495Z" fill="#E52C20" style="fill:#E52C20;fill:color(display-p3 0.8980 0.1725 0.1255);fill-opacity:1;"/>
</svg>
